<svg width="226" height="96" viewBox="0 0 226 96" fill="none" xmlns="http://www.w3.org/2000/svg">
<path d="M87.3408 15.0499L88.6489 15.5188C90.8208 16.3086 93.2642 16.1605 95.3374 15.1486L96.8676 14.4082C99.6319 13.0754 102.865 12.878 105.753 13.8652L136.234 24.3793C136.826 24.5767 137.246 25.1691 137.221 25.8108C137.196 26.0329 137.023 31.2159 133.371 33.7333C131.1 35.2882 128.163 35.461 124.584 34.227L113.206 30.3274C112.244 32.8942 109.702 38.0772 104.42 40.9155C102.001 42.2236 99.3357 42.8653 96.4233 42.8653C93.8812 42.8653 91.1416 42.3717 88.254 41.3844M87.3408 15.0499L86.0327 14.581C85.9093 14.5069 85.7859 14.4329 85.6625 14.3835L70.0641 9.07713C69.6939 8.95372 69.2743 8.9784 68.9288 9.15117C68.5833 9.32394 68.3118 9.62011 68.1884 9.99032L55.0828 48.221C54.8113 48.9861 55.2309 49.8253 55.996 50.0968L71.619 55.4525C71.7918 55.5266 71.9399 55.5513 72.1126 55.5513C72.3348 55.5513 72.5569 55.5019 72.7544 55.4032C73.0999 55.2304 73.3714 54.9342 73.4948 54.564L87.3408 15.0499ZM160.051 55.403L140.059 18.6285C139.714 17.8881 140.01 17.0242 140.75 16.654L155.583 9.39783C155.929 9.22507 156.349 9.20039 156.719 9.32379C157.089 9.44719 157.385 9.71868 157.558 10.0642L175.378 46.2711C175.723 47.0115 175.427 47.8754 174.686 48.2456L160.051 55.403ZM160.051 55.403L153.609 61.3265C148.475 66.0405 142.725 69.9894 136.456 73.0499L108.048 86.9452C107.184 87.3648 106.246 87.5869 105.308 87.5869C104.617 87.5869 103.926 87.4635 103.26 87.2414C101.68 86.6984 100.397 85.5631 99.6565 84.0576C99.1136 82.9963 98.9161 81.8363 99.0395 80.6763M122.388 69.249L99.0395 80.6763M99.0395 80.6763L96.3493 82.009C95.4608 82.4533 94.5229 82.6507 93.6097 82.6507C91.2897 82.6507 89.0684 81.3673 87.9825 79.1461C87.3901 77.912 87.242 76.6039 87.4395 75.3699M110.245 64.2141L87.4395 75.3699M87.4395 75.3699C87.168 75.3946 86.8965 75.4192 86.625 75.4192C84.305 75.4192 82.0837 74.1358 80.9978 71.9146C79.7884 69.4465 80.3561 66.5588 82.2318 64.7077M102.643 54.712L82.2318 64.7077M82.2318 64.7077C81.0965 64.0907 80.1586 63.1528 79.591 61.9682C78.8505 60.4626 78.7518 58.7596 79.2948 57.1801C79.8378 55.6005 80.9731 54.3171 82.4786 53.5766L93.3135 48.2703" stroke="#F6A219" stroke-width="2"/>
</svg>
