<svg width="226" height="98" viewBox="0 0 226 98" fill="none" xmlns="http://www.w3.org/2000/svg">
<path d="M132 30V28.7021C132 26.1152 134.135 24 136.743 24H158.257C160.866 24 163 26.1159 163 28.7021V48.3343C163 50.9204 160.558 53.0363 157.948 53.0363H157V72.2979C157 74.8841 154.866 77 152.257 77H142.743C140.134 77 138 74.8841 138 72.2979V71M91 71V72.2979C91 74.8841 88.8663 77 86.2567 77H76.7433C74.1345 77 72 74.8841 72 72.2979V53.0363H71.0521C68.4425 53.0363 66 50.9204 66 48.3343V28.7021C66 26.1159 68.1337 24 70.7433 24H92.2567C94.8647 24 97 26.1152 97 28.7021V30M157 10.4825C157 15.7196 152.783 19.9651 147.5 19.9651C142.217 19.9651 138 15.7196 138 10.4825C138 5.24547 142.217 1 147.5 1C152.783 1 157 5.24547 157 10.4825ZM97 40.7013C97 38.1159 99.0554 35.9992 101.654 36H127.257C129.866 36 132 38.1159 132 40.7021V65.3393C132 67.9263 130.179 70 127.57 70H126V92.2979C126 94.8841 123.866 97 121.257 97H107.743C105.134 97 103 94.8841 103 92.2979V70H101.271C98.6623 70 97 68.0038 97 65.4177V40.7013ZM125.529 21.2973C125.529 27.3134 120.609 32.1905 114.54 32.1905C108.471 32.1905 103.551 27.3134 103.551 21.2973C103.551 15.2812 108.471 10.4042 114.54 10.4042C120.609 10.4042 125.529 15.2812 125.529 21.2973ZM72 10.4825C72 15.7196 76.217 19.9651 81.5 19.9651C86.783 19.9651 91 15.7196 91 10.4825C91 5.24547 86.783 1 81.5 1C76.217 1 72 5.24547 72 10.4825Z" stroke="#F6A219" stroke-width="2"/>
</svg>
