<svg width="226" height="96" viewBox="0 0 226 96" fill="none" xmlns="http://www.w3.org/2000/svg">
<circle cx="115" cy="48" r="16" stroke="#F6A219" stroke-width="2"/>
<circle cx="115" cy="43" r="5" stroke="#F6A219" stroke-width="2"/>
<path d="M108 57V54C108 52.4151 109.309 51 110.907 51H119.093C120.692 51 122 52.4156 122 54V57" stroke="#F6A219" stroke-width="2"/>
<path d="M115 2V26M115 2L107 10M115 2L123 10M115 94V70M115 94L107 86M115 94L123 86" stroke="#F6A219" stroke-width="2"/>
<path d="M147.527 15.4733L130.556 32.4438M147.527 15.4733H136.213M147.527 15.4733V26.787M82.4731 80.5271L99.4437 63.5565M82.4731 80.5271V69.2134M82.4731 80.5271H93.7868" stroke="#F6A219" stroke-width="2"/>
<path d="M161 48L137 48M161 48L153 40M161 48L153 56M69 48L93 48M69 48L77 40M69 48L77 56" stroke="#F6A219" stroke-width="2"/>
<path d="M147.527 80.527L130.556 63.5564M147.527 80.527L147.527 69.2133M147.527 80.527L136.213 80.527M82.4731 15.4731L99.4437 32.4437M82.4731 15.4731L93.7868 15.4731M82.4731 15.4731L82.4731 26.7869" stroke="#F6A219" stroke-width="2"/>
</svg>
